<?xml version="1.0" encoding="UTF-8"?>
<!DOCTYPE svg PUBLIC "-//W3C//DTD SVG 1.1//EN" "http://www.w3.org/Graphics/SVG/1.1/DTD/svg11.dtd">
<svg xmlns="http://www.w3.org/2000/svg" version="1.1" width="512px" height="512px" style="shape-rendering:geometricPrecision; text-rendering:geometricPrecision; image-rendering:optimizeQuality; fill-rule:evenodd; clip-rule:evenodd" xmlns:xlink="http://www.w3.org/1999/xlink">
<g><path style="opacity:0.954" fill="#ec8682" d="M 253.5,32.5 C 264.457,32.5449 270.957,37.8782 273,48.5C 273.167,119.169 273.667,189.836 274.5,260.5C 289.511,272.039 293.678,286.706 287,304.5C 276.918,322.075 262.085,327.908 242.5,322C 225.143,313.452 218.309,299.618 222,280.5C 224.353,271.988 229.186,265.321 236.5,260.5C 237.333,189.836 237.833,119.169 238,48.5C 239.346,39.3224 244.513,33.9891 253.5,32.5 Z"/></g>
<g><path style="opacity:0.96" fill="#ec8682" d="M 420.5,101.5 C 441.453,101.401 447.953,111.068 440,130.5C 407.833,162.667 375.667,194.833 343.5,227C 335.282,231.845 327.282,231.511 319.5,226C 313.986,219.039 313.152,211.539 317,203.5C 351.09,168.909 385.59,134.909 420.5,101.5 Z"/></g>
<g><path style="opacity:0.956" fill="#ec8682" d="M 131.5,152.5 C 136.412,152.063 141.078,152.896 145.5,155C 164.333,173.833 183.167,192.667 202,211.5C 206.537,219.84 205.704,227.673 199.5,235C 191.516,240.872 183.516,240.872 175.5,235C 157.667,217.167 139.833,199.333 122,181.5C 114.975,168.262 118.142,158.595 131.5,152.5 Z"/></g>
<g><path style="opacity:0.966" fill="#ec8682" d="M 61.5,272.5 C 99.8348,272.333 138.168,272.5 176.5,273C 180.612,274.779 183.778,277.612 186,281.5C 186.279,300.669 191.946,318.003 203,333.5C 225.481,356.598 251.981,362.765 282.5,352C 302.476,343.356 315.31,328.523 321,307.5C 322.453,298.833 323.787,290.166 325,281.5C 327.222,277.612 330.388,274.779 334.5,273C 372.833,272.333 411.167,272.333 449.5,273C 461.507,280.045 464.007,289.545 457,301.5C 454.92,303.123 452.754,304.623 450.5,306C 418.549,307.471 386.549,307.971 354.5,307.5C 352.105,322.02 346.772,335.354 338.5,347.5C 361.153,370.653 383.986,393.653 407,416.5C 412.587,428.136 409.754,436.969 398.5,443C 392.042,444.301 386.042,443.301 380.5,440C 358.333,417.833 336.167,395.667 314,373.5C 301.831,382.335 288.331,388.001 273.5,390.5C 273.953,415.877 273.453,441.21 272,466.5C 266.485,477.342 257.985,480.508 246.5,476C 243.158,473.473 240.658,470.306 239,466.5C 237.547,441.21 237.047,415.877 237.5,390.5C 222.746,388.121 209.412,382.455 197.5,373.5C 186.347,384.152 175.347,394.986 164.5,406C 155.316,411.287 146.816,410.454 139,403.5C 134.759,396.732 134.425,389.732 138,382.5C 149.681,370.986 161.181,359.319 172.5,347.5C 164.228,335.354 158.895,322.02 156.5,307.5C 124.451,307.971 92.4505,307.471 60.5,306C 53.8809,302.534 50.2142,297.034 49.5,289.5C 50.4349,281.58 54.4349,275.914 61.5,272.5 Z"/></g>
</svg>
