<svg width="24" height="24" xmlns="http://www.w3.org/2000/svg" fill="none">

 <g>
  <title>Layer 1</title>
  <g stroke-width="0" id="SVGRepo_bgCarrier"/>
  <g stroke-linejoin="round" stroke-linecap="round" id="SVGRepo_tracerCarrier"/>
  <path id="svg_1" stroke-linejoin="round" stroke-linecap="round" stroke-width="3.6" stroke="#ec8682" d="m11.37121,3.47377l3.59752,7.43933l-6.09752,5.31403l4.70939,6.00214m8.2444,-14.09676l0,8.03132c0,2.10115 0,3.15179 -0.45249,3.95431c-0.39797,0.70597 -1.03297,1.28 -1.8141,1.63968c-0.88809,0.40895 -2.05045,0.40895 -4.37543,0.40895l-6.08852,0c-2.32493,0 -3.48739,0 -4.37539,-0.40895c-0.78112,-0.35968 -1.41618,-0.93371 -1.81417,-1.63968c-0.45246,-0.80252 -0.45246,-1.85316 -0.45246,-3.95431l0,-8.03214m-0.0088,0.0776"/>
  <path transform="rotate(180, 12.0718, 7.86798)" id="svg_4" stroke-linejoin="round" stroke-linecap="round" stroke-width="3.6" stroke="#ec8682" d="m21.76251,2.25735l0,6.42192c0,1.6801 0,2.5202 -0.45249,3.1619c-0.39797,0.5645 -1.03297,1.0235 -1.8141,1.3111c-0.88809,0.327 -2.05045,0.327 -4.37543,0.327l-6.08852,0c-2.32493,0 -3.48739,0 -4.37539,-0.327c-0.78112,-0.2876 -1.41618,-0.7466 -1.81417,-1.3111c-0.45246,-0.6417 -0.45246,-1.4818 -0.45246,-3.1619l0,-6.42257m-0.0088,0.06205"/>
 </g>
</svg>